<svg width="32px" height="32px" style="vertical-align: middle;" xmlns="http://www.w3.org/2000/svg" version="1.1" viewBox="-5.0 -10.0 110.0 135.0">
  <path d="m62.676 77.316c1.1055 0 2 0.89453 2 2 0 1.1055-0.89453 2-2 2h-3.8906l-2.0898 9.9648c-0.22266 1.0781-1.2812 1.7695-2.3594 1.5469l-0.21094-0.054687-6.7578-2.2148c-1.0469-0.33984-1.6211-1.4688-1.2812-2.5156 0.33984-1.0469 1.4688-1.6211 2.5156-1.2812l4.6445 1.5234 2.3125-11.035c0.054687-0.26172 0.066406-0.50781 0.03125-0.73047-0.035156-0.22266-0.12109-0.45312-0.25391-0.68359-6.6719-11.559-13.359-23.105-20.016-34.672l-13.914 8.0312 18.777 32.527c0.27344 0.47266 0.72266 0.79297 1.2227 0.92969 0.5 0.13281 1.0508 0.078125 1.5273-0.19531l3.8438-2.2148c0.95312-0.54688 2.1719-0.21875 2.7188 0.73437 0.54688 0.95313 0.21875 2.1719-0.73438 2.7188l-3.8281 2.2109c-1.4336 0.83203-3.0703 1-4.5586 0.60547-1.4805-0.39844-2.8164-1.3633-3.6484-2.8047l-1.3789-2.3906h-18.109c-3.8438 0-7.3438-1.5742-9.8789-4.1094-2.543-2.5469-4.1172-6.043-4.1172-9.8867v-46.184c0-3.8516 1.5742-7.3555 4.1094-9.8867 2.5352-2.5352 6.0352-4.1094 9.8867-4.1094h65.516c3.8516 0 7.3555 1.5742 9.8867 4.1094 2.5352 2.5352 4.1094 6.0352 4.1094 9.8867v46.184c0 3.7188-1.4766 7.1172-3.8672 9.6328-2.4023 2.5234-5.7383 4.1602-9.4375 4.3438-1.1016 0.050781-2.0352-0.79688-2.0859-1.8984-0.050781-1.1016 0.79688-2.0352 1.8984-2.0859 2.6367-0.12891 5.0156-1.3047 6.7383-3.1094 1.707-1.793 2.7578-4.2188 2.7578-6.8828v-40.691h-29.113c-2.3086 0-4.4766-0.62109-6.3281-1.7695-1.8477-1.1406-3.3672-2.7969-4.4062-4.875l-4.4258-8.8477h-31.238c-2.7461 0-5.25 1.125-7.0625 2.9375s-2.9375 4.3125-2.9375 7.0625v1.4922h35.184c1.1055 0 2 0.89453 2 2 0 1.1055-0.89453 2-2 2h-35.184v40.691c0 2.75 1.125 5.2539 2.9336 7.0625 1.8125 1.8086 4.3164 2.9336 7.0625 2.9336h15.797l-15.047-26.066c-0.25 0.25391-0.42578 0.56641-0.51562 0.90234-0.13281 0.50391-0.082031 1.0586 0.19531 1.5352l7.2383 12.539c0.54688 0.95313 0.21875 2.1719-0.73438 2.7188-0.95312 0.54688-2.1719 0.21875-2.7188-0.73437l-7.2383-12.539c-0.82422-1.4336-0.99609-3.0703-0.59766-4.5508 0.36328-1.3672 1.2109-2.6055 2.457-3.4375-0.56641-1.5664-0.60938-3.2383-0.19922-4.7812 0.21094-0.78125 0.53516-1.5312 0.97266-2.2188l-1.1016-1.8984c-0.82812-1.4336-0.99609-3.0742-0.60156-4.5586 0.38672-1.4336 1.3008-2.7305 2.6641-3.5625 1.0312-0.65234 2.1914-1.2812 3.2617-1.8867 1.3984-0.75391 2.9727-0.89844 4.4062-0.51562 1.4375 0.38672 2.7383 1.3047 3.5703 2.6641l1.1758 2.0391c0.81641-0.03125 1.6289 0.058594 2.4062 0.26953 1.9766 0.53125 3.7539 1.8164 4.8594 3.7266 0.31641 0.55078 0.63672 1.1016 0.95312 1.6523h7.457c1.1055 0 2 0.89453 2 2s-0.89453 2-2 2h-5.1445l2.168 3.7578h34.812c1.1055 0 2 0.89453 2 2 0 1.1055-0.89453 2-2 2h-32.5l2.168 3.7578h30.332c1.1055 0 2 0.89453 2 2 0 1.1055-0.89453 2-2 2h-28.023l2.168 3.7578h25.852c1.1055 0 2 0.89453 2 2s-0.89453 2-2 2h-23.543l4.5977 7.9648c0.37891 0.65625 0.62891 1.3438 0.73828 2.0586 0.074218 0.46875 0.09375 0.94531 0.050781 1.4219h3.0977zm6.5234 4c-1.1055 0-2-0.89453-2-2 0-1.1055 0.89453-2 2-2h0.46875c1.1055 0 2 0.89453 2 2 0 1.1055-0.89453 2-2 2zm-36.102-43.473c-0.44141-0.35938-0.95312-0.61328-1.4961-0.75781-0.99609-0.26563-2.0898-0.15625-3.043 0.39453l-6.957 4.0156c-0.95703 0.55469-1.6016 1.4453-1.8672 2.4375-0.14453 0.54297-0.17969 1.1133-0.089844 1.6758zm-13.254 0.054688 6.4766-3.7344-0.64453-1.1133c-0.28125-0.47656-0.73047-0.80078-1.2266-0.93359-0.5-0.13281-1.0508-0.078126-1.5273 0.19531-1.0234 0.57812-2.0352 1.1914-3.0586 1.7656-0.43359 0.27344-0.72656 0.70312-0.85547 1.1758-0.13281 0.5-0.078124 1.0508 0.19531 1.5273zm-0.12109-25.723c1.293 0 2.4648 0.52734 3.3164 1.375 0.85547 0.85938 1.3828 2.0352 1.3828 3.3242 0 1.293-0.52734 2.4648-1.375 3.3164-0.85938 0.85547-2.0312 1.3828-3.3242 1.3828-1.2891 0-2.4648-0.52734-3.3164-1.375-0.85547-0.85938-1.3828-2.0312-1.3828-3.3242 0-1.2891 0.52734-2.4648 1.375-3.3164 0.85937-0.85547 2.0352-1.3828 3.3242-1.3828zm0.5 4.1992c-0.125-0.12109-0.30078-0.19922-0.5-0.19922-0.19531 0-0.375 0.078125-0.5 0.19922-0.12109 0.125-0.19922 0.30078-0.19922 0.5 0 0.19531 0.078124 0.375 0.19922 0.5 0.125 0.12109 0.30078 0.19922 0.5 0.19922 0.19531 0 0.375-0.078125 0.5-0.19922 0.12109-0.125 0.19922-0.30078 0.19922-0.5 0-0.19531-0.078125-0.375-0.19922-0.5zm29.012 10.246c-1.1055 0-2-0.89453-2-2 0-1.1055 0.89453-2 2-2h0.94531c1.1055 0 2 0.89453 2 2 0 1.1055-0.89453 2-2 2zm28.738-7.7422c-1.1055 0-2-0.89453-2-2 0-1.1055 0.89453-2 2-2h5.8594c1.1055 0 2 0.89453 2 2 0 1.1055-0.89453 2-2 2zm-13.809 0c-1.1055 0-2-0.89453-2-2 0-1.1055 0.89453-2 2-2h5.8594c1.1055 0 2 0.89453 2 2 0 1.1055-0.89453 2-2 2zm-11.23-7.7461 3.5352 7.0664c0.69922 1.3984 1.7148 2.5078 2.9375 3.2656 1.2148 0.75 2.6602 1.1602 4.2344 1.1602h29.113v-1.4922c0-2.7461-1.125-5.25-2.9375-7.0625s-4.3125-2.9375-7.0625-2.9375h-29.824z" fill="#ffffff" stroke="#000000" stroke-width="1.5" stroke-linecap="round" stroke-linejoin="round"/>
</svg>