<svg viewBox="0.12 3.32 23.77 17.37" xmlns="http://www.w3.org/2000/svg" xmlns:xlink="http://www.w3.org/1999/xlink" version="1.1" preserveAspectRatio="xMidYMid meet" enable-background="new 0 0 24 24" xml:space="preserve"><path d="M10.909,17.145L2.494,17.14c-1.607-0.001-2.359-0.737-2.367-2.316c-0.015-3.129-0.014-6.258-0.003-9.387   c0.004-1.417,0.734-2.109,2.23-2.115c1.127-0.004,2.254-0.005,3.381-0.005l13.017,0.006c1.675,0.002,2.27,0.583,2.273,2.218   c0.008,3.097,0.008,6.192,0,9.289c-0.005,1.639-0.679,2.309-2.325,2.311L10.909,17.145z M5.736,4.317   c-1.126,0-2.252,0.001-3.377,0.005C1.306,4.326,1.127,4.67,1.124,5.441c-0.011,3.125-0.012,6.252,0.003,9.378   c0.005,1.024,0.312,1.32,1.368,1.321l8.414,0.005l7.791-0.005c1.101-0.002,1.324-0.223,1.327-1.313c0.008-3.095,0.008-6.19,0-9.285   c-0.002-1.07-0.157-1.218-1.275-1.22L5.736,4.317z M6.346,12.863L6.346,12.863c-1.776,0-3.145-1.332-3.329-3.24   C2.937,8.79,3.164,8.032,3.674,7.432c0.583-0.687,1.501-1.104,2.587-1.175c0.14-0.012,0.274,0.04,0.375,0.134   c0.101,0.095,0.158,0.227,0.158,0.365v2.216h2.24c0.25,0,0.461,0.185,0.495,0.432c0.118,0.854-0.076,1.637-0.561,2.261   c-0.505,0.651-1.295,1.069-2.225,1.176C6.609,12.855,6.477,12.863,6.346,12.863z M5.794,7.329C5.221,7.452,4.749,7.71,4.436,8.08   c-0.331,0.389-0.477,0.89-0.423,1.447c0.143,1.478,1.238,2.47,2.618,2.319c0.659-0.075,1.209-0.357,1.548-0.794   c0.235-0.304,0.365-0.672,0.382-1.08H6.294c-0.276,0-0.5-0.224-0.5-0.5V7.329z"/><path d="M14.787,20.683c-2.537,0-5.074-0.001-7.612-0.005c-1.003-0.001-1.742-0.284-2.197-0.842   c-0.562-0.688-0.676-1.734-0.358-3.291c0.055-0.271,0.32-0.446,0.589-0.391c0.271,0.056,0.445,0.319,0.39,0.59   C5.35,17.968,5.4,18.772,5.752,19.204c0.26,0.318,0.726,0.474,1.424,0.475c4.803,0.008,9.604,0.005,14.404,0.003   c1.182-0.001,1.304-0.12,1.304-1.276l-0.006-8.434c-0.001-0.438-0.109-0.757-0.333-0.976c-0.343-0.336-1.016-0.493-2.003-0.476   c-0.285,0.013-0.504-0.214-0.51-0.49c-0.006-0.275,0.214-0.504,0.49-0.51c1.265-0.026,2.173,0.223,2.722,0.761   c0.42,0.411,0.633,0.979,0.634,1.688l0.006,8.436c0,1.701-0.581,2.275-2.304,2.276C19.316,20.682,17.052,20.683,14.787,20.683z"/><path d="M19.076,7.492h-5.584c-0.276,0-0.5-0.224-0.5-0.5s0.224-0.5,0.5-0.5h5.584c0.276,0,0.5,0.224,0.5,0.5   S19.353,7.492,19.076,7.492z"/><path d="M19.076,9.703h-5.584c-0.276,0-0.5-0.224-0.5-0.5s0.224-0.5,0.5-0.5h5.584c0.276,0,0.5,0.224,0.5,0.5   S19.353,9.703,19.076,9.703z"/><path d="M19.076,11.822h-5.584c-0.276,0-0.5-0.224-0.5-0.5s0.224-0.5,0.5-0.5h5.584c0.276,0,0.5,0.224,0.5,0.5   S19.353,11.822,19.076,11.822z"/><path d="M12.109,7.492h-0.219c-0.276,0-0.5-0.224-0.5-0.5s0.224-0.5,0.5-0.5h0.219c0.276,0,0.5,0.224,0.5,0.5   S12.386,7.492,12.109,7.492z"/><path d="M12.109,9.657h-0.219c-0.276,0-0.5-0.224-0.5-0.5s0.224-0.5,0.5-0.5h0.219c0.276,0,0.5,0.224,0.5,0.5   S12.386,9.657,12.109,9.657z"/><path d="M12.109,11.822h-0.219c-0.276,0-0.5-0.224-0.5-0.5s0.224-0.5,0.5-0.5h0.219c0.276,0,0.5,0.224,0.5,0.5   S12.386,11.822,12.109,11.822z"/></svg>